<svg width="32" height="32" viewBox="0 0 32 32" fill="none" xmlns="http://www.w3.org/2000/svg">
<rect width="32" height="32" rx="5" fill="url(#paint0_linear_274_1118)"/>
<path d="M2.65714 18V14.7273H3.56481V18H2.65714ZM3.1131 14.3054C2.97816 14.3054 2.86239 14.2607 2.7658 14.1712C2.67063 14.0803 2.62305 13.9716 2.62305 13.8452C2.62305 13.7202 2.67063 13.6129 2.7658 13.5234C2.86239 13.4325 2.97816 13.3871 3.1131 13.3871C3.24805 13.3871 3.3631 13.4325 3.45827 13.5234C3.55487 13.6129 3.60316 13.7202 3.60316 13.8452C3.60316 13.9716 3.55487 14.0803 3.45827 14.1712C3.3631 14.2607 3.24805 14.3054 3.1131 14.3054ZM5.95597 16.483H6.74006L7.13423 16.9901L7.52202 17.4418L8.25284 18.358H7.39205L6.8892 17.7401L6.63139 17.3736L5.95597 16.483ZM8.31889 15.8182C8.31889 16.294 8.22869 16.6989 8.0483 17.0327C7.86932 17.3665 7.625 17.6214 7.31534 17.7976C7.0071 17.9723 6.66051 18.0597 6.27557 18.0597C5.88778 18.0597 5.53977 17.9716 5.23153 17.7955C4.9233 17.6193 4.67969 17.3643 4.50071 17.0305C4.32173 16.6967 4.23224 16.2926 4.23224 15.8182C4.23224 15.3423 4.32173 14.9375 4.50071 14.6037C4.67969 14.2699 4.9233 14.0156 5.23153 13.8409C5.53977 13.6648 5.88778 13.5767 6.27557 13.5767C6.66051 13.5767 7.0071 13.6648 7.31534 13.8409C7.625 14.0156 7.86932 14.2699 8.0483 14.6037C8.22869 14.9375 8.31889 15.3423 8.31889 15.8182ZM7.38352 15.8182C7.38352 15.5099 7.33736 15.25 7.24503 15.0384C7.15412 14.8267 7.02557 14.6662 6.85938 14.5568C6.69318 14.4474 6.49858 14.3928 6.27557 14.3928C6.05256 14.3928 5.85795 14.4474 5.69176 14.5568C5.52557 14.6662 5.39631 14.8267 5.30398 15.0384C5.21307 15.25 5.16761 15.5099 5.16761 15.8182C5.16761 16.1264 5.21307 16.3864 5.30398 16.598C5.39631 16.8097 5.52557 16.9702 5.69176 17.0795C5.85795 17.1889 6.05256 17.2436 6.27557 17.2436C6.49858 17.2436 6.69318 17.1889 6.85938 17.0795C7.02557 16.9702 7.15412 16.8097 7.24503 16.598C7.33736 16.3864 7.38352 16.1264 7.38352 15.8182ZM9.50835 18H8.51971L10.0261 13.6364H11.215L12.7193 18H11.7306L10.6376 14.6335H10.6035L9.50835 18ZM9.44656 16.2848H11.7818V17.005H9.44656V16.2848ZM14.1351 13.6364V18H13.2275V13.6364H14.1351ZM14.8622 18V14.7273H15.7699V18H14.8622ZM15.3182 14.3054C15.1832 14.3054 15.0675 14.2607 14.9709 14.1712C14.8757 14.0803 14.8281 13.9716 14.8281 13.8452C14.8281 13.7202 14.8757 13.6129 14.9709 13.5234C15.0675 13.4325 15.1832 13.3871 15.3182 13.3871C15.4531 13.3871 15.5682 13.4325 15.6634 13.5234C15.7599 13.6129 15.8082 13.7202 15.8082 13.8452C15.8082 13.9716 15.7599 14.0803 15.6634 14.1712C15.5682 14.2607 15.4531 14.3054 15.3182 14.3054ZM17.9714 19.2955C17.6774 19.2955 17.4252 19.255 17.215 19.174C17.0062 19.0945 16.84 18.9858 16.7164 18.848C16.5929 18.7102 16.5126 18.5554 16.4757 18.3835L17.3152 18.2706C17.3407 18.3359 17.3812 18.397 17.4366 18.4538C17.492 18.5107 17.5652 18.5561 17.6561 18.5902C17.7484 18.6257 17.8606 18.6435 17.9927 18.6435C18.1902 18.6435 18.3528 18.5952 18.4806 18.4986C18.6099 18.4034 18.6745 18.2436 18.6745 18.0192V17.4205H18.6362C18.5964 17.5114 18.5368 17.5973 18.4572 17.6783C18.3777 17.7592 18.2754 17.8253 18.1504 17.8764C18.0254 17.9276 17.8762 17.9531 17.7029 17.9531C17.4572 17.9531 17.2335 17.8963 17.0318 17.7827C16.8315 17.6676 16.6717 17.4922 16.5524 17.2564C16.4345 17.0192 16.3755 16.7195 16.3755 16.3572C16.3755 15.9865 16.4359 15.6768 16.5566 15.4283C16.6774 15.1797 16.8379 14.9936 17.0382 14.87C17.2399 14.7464 17.4608 14.6847 17.7008 14.6847C17.8841 14.6847 18.0375 14.7159 18.161 14.7784C18.2846 14.8395 18.3841 14.9162 18.4593 15.0085C18.536 15.0994 18.595 15.1889 18.6362 15.277H18.6703V14.7273H19.5716V18.032C19.5716 18.3104 19.5034 18.5433 19.367 18.7308C19.2306 18.9183 19.0417 19.0589 18.8002 19.1527C18.5602 19.2479 18.2839 19.2955 17.9714 19.2955ZM17.9906 17.2713C18.1369 17.2713 18.2605 17.2351 18.3613 17.1626C18.4636 17.0888 18.5417 16.9837 18.5957 16.8473C18.6511 16.7095 18.6788 16.5447 18.6788 16.353C18.6788 16.1612 18.6518 15.995 18.5978 15.8544C18.5439 15.7124 18.4657 15.6023 18.3635 15.5241C18.2612 15.446 18.1369 15.407 17.9906 15.407C17.8414 15.407 17.7157 15.4474 17.6135 15.5284C17.5112 15.608 17.4338 15.7187 17.3812 15.8608C17.3287 16.0028 17.3024 16.1669 17.3024 16.353C17.3024 16.5419 17.3287 16.7053 17.3812 16.843C17.4352 16.9794 17.5126 17.0852 17.6135 17.1605C17.7157 17.2344 17.8414 17.2713 17.9906 17.2713ZM21.2015 16.108V18H20.2939V14.7273H21.1589V15.3047H21.1973C21.2697 15.1143 21.3912 14.9638 21.5616 14.853C21.7321 14.7408 21.9387 14.6847 22.1816 14.6847C22.4089 14.6847 22.6071 14.7344 22.7761 14.8338C22.9451 14.9332 23.0765 15.0753 23.1703 15.2599C23.264 15.4432 23.3109 15.6619 23.3109 15.9162V18H22.4032V16.0781C22.4047 15.8778 22.3535 15.7216 22.2498 15.6094C22.1461 15.4957 22.0034 15.4389 21.8216 15.4389C21.6994 15.4389 21.5914 15.4652 21.4977 15.5178C21.4054 15.5703 21.3329 15.647 21.2804 15.7479C21.2292 15.8473 21.2029 15.9673 21.2015 16.108ZM25.5178 18.0639C25.1811 18.0639 24.8913 17.9957 24.6484 17.8594C24.407 17.7216 24.2209 17.527 24.0902 17.2756C23.9595 17.0227 23.8942 16.7237 23.8942 16.3786C23.8942 16.0419 23.9595 15.7464 24.0902 15.4922C24.2209 15.2379 24.4048 15.0398 24.642 14.8977C24.8807 14.7557 25.1605 14.6847 25.4815 14.6847C25.6974 14.6847 25.8984 14.7195 26.0845 14.7891C26.272 14.8572 26.4354 14.9602 26.5746 15.098C26.7152 15.2358 26.8246 15.4091 26.9027 15.6179C26.9808 15.8253 27.0199 16.0682 27.0199 16.3466V16.5959H24.2564V16.0334H26.1655C26.1655 15.9027 26.1371 15.7869 26.0803 15.6861C26.0234 15.5852 25.9446 15.5064 25.8438 15.4496C25.7443 15.3913 25.6286 15.3622 25.4964 15.3622C25.3587 15.3622 25.2365 15.3942 25.13 15.4581C25.0249 15.5206 24.9425 15.6051 24.8828 15.7116C24.8232 15.8168 24.7926 15.9339 24.7912 16.0632V16.598C24.7912 16.7599 24.821 16.8999 24.8807 17.0178C24.9418 17.1357 25.0277 17.2266 25.1385 17.2905C25.2493 17.3544 25.3807 17.3864 25.5327 17.3864C25.6335 17.3864 25.7259 17.3722 25.8097 17.3438C25.8935 17.3153 25.9652 17.2727 26.0249 17.2159C26.0845 17.1591 26.13 17.0895 26.1612 17.0071L27.0007 17.0625C26.9581 17.2642 26.8707 17.4403 26.7386 17.5909C26.608 17.7401 26.4389 17.8565 26.2315 17.9403C26.0256 18.0227 25.7876 18.0639 25.5178 18.0639ZM27.6122 18V14.7273H28.4922V15.2983H28.5263C28.5859 15.0952 28.6861 14.9418 28.8267 14.8381C28.9673 14.733 29.1293 14.6804 29.3125 14.6804C29.358 14.6804 29.407 14.6832 29.4595 14.6889C29.5121 14.6946 29.5582 14.7024 29.598 14.7124V15.5178C29.5554 15.505 29.4964 15.4936 29.4212 15.4837C29.3459 15.4737 29.277 15.4688 29.2145 15.4688C29.081 15.4688 28.9616 15.4979 28.8565 15.5561C28.7528 15.6129 28.6705 15.6925 28.6094 15.7947C28.5497 15.897 28.5199 16.0149 28.5199 16.1484V18H27.6122Z" fill="white"/>
<defs>
<linearGradient id="paint0_linear_274_1118" x1="3.5" y1="2" x2="28.5" y2="29.5" gradientUnits="userSpaceOnUse">
<stop stop-color="#38B4F7"/>
<stop offset="1" stop-color="#CD09F7"/>
</linearGradient>
</defs>
</svg>
